<mxfile host="app.diagrams.net" agent="Mozilla/5.0 (Windows NT 10.0; Win64; x64) AppleWebKit/537.36 (KHTML, like Gecko) Chrome/129.0.0.0 Safari/537.36 Edg/129.0.0.0" version="24.7.17">
  <diagram name="Página-1" id="o47DHIeaNQYIoSvxBMfL">
    <mxGraphModel dx="1810" dy="1708" grid="1" gridSize="10" guides="1" tooltips="1" connect="1" arrows="1" fold="1" page="1" pageScale="1" pageWidth="827" pageHeight="1169" math="0" shadow="0">
      <root>
        <mxCell id="0" />
        <mxCell id="1" parent="0" />
        <mxCell id="8Yfpx1BOfUTbNeeiR8w_-63" value="MOVIMENTOS" style="rounded=0;whiteSpace=wrap;html=1;" vertex="1" parent="1">
          <mxGeometry x="2530" y="185" width="140" height="70" as="geometry" />
        </mxCell>
        <mxCell id="8Yfpx1BOfUTbNeeiR8w_-32" value="" style="rounded=0;whiteSpace=wrap;html=1;" vertex="1" parent="1">
          <mxGeometry x="1560" y="545" width="140" height="70" as="geometry" />
        </mxCell>
        <mxCell id="TMby_tyriAQ5ey5jKDCZ-1" value="TELEFONO" style="ellipse;whiteSpace=wrap;html=1;" parent="1" vertex="1">
          <mxGeometry x="187.5" y="145" width="105" height="70" as="geometry" />
        </mxCell>
        <mxCell id="W9Ks_EkjWokIj7THZj_N-93" value="" style="rounded=0;whiteSpace=wrap;html=1;" parent="1" vertex="1">
          <mxGeometry x="290" y="994" width="130" height="72" as="geometry" />
        </mxCell>
        <mxCell id="W9Ks_EkjWokIj7THZj_N-1" value="&lt;h1 style=&quot;margin-top: 0px;&quot;&gt;DATOS&lt;/h1&gt;&lt;p&gt;- JUGADORES (4)&lt;/p&gt;&lt;p&gt;- PARTIDA&lt;/p&gt;&lt;p&gt;- ÁRBITRO&amp;nbsp;&lt;/p&gt;&lt;p&gt;- LICENCIA ÁRBITRO&lt;/p&gt;&lt;p&gt;- FEDERACIONES REGIONALES (1)&lt;/p&gt;&lt;p&gt;- HABITACIÓN&lt;/p&gt;&lt;p&gt;- SALAS HOTEL&lt;/p&gt;&lt;p&gt;- MOVIMIENTOS&lt;/p&gt;&lt;p&gt;&lt;br&gt;&lt;/p&gt;" style="text;html=1;whiteSpace=wrap;overflow=hidden;rounded=0;" parent="1" vertex="1">
          <mxGeometry x="-290" y="10" width="180" height="280" as="geometry" />
        </mxCell>
        <mxCell id="W9Ks_EkjWokIj7THZj_N-2" value="ÁRBITROS" style="rounded=0;whiteSpace=wrap;html=1;" parent="1" vertex="1">
          <mxGeometry x="580" y="470" width="120" height="60" as="geometry" />
        </mxCell>
        <mxCell id="W9Ks_EkjWokIj7THZj_N-14" style="edgeStyle=orthogonalEdgeStyle;rounded=0;orthogonalLoop=1;jettySize=auto;html=1;entryX=0.5;entryY=0;entryDx=0;entryDy=0;" parent="1" source="W9Ks_EkjWokIj7THZj_N-3" target="W9Ks_EkjWokIj7THZj_N-12" edge="1">
          <mxGeometry relative="1" as="geometry" />
        </mxCell>
        <mxCell id="TMby_tyriAQ5ey5jKDCZ-6" value="0:1" style="edgeLabel;html=1;align=center;verticalAlign=middle;resizable=0;points=[];" parent="W9Ks_EkjWokIj7THZj_N-14" vertex="1" connectable="0">
          <mxGeometry x="0.0384" y="-1" relative="1" as="geometry">
            <mxPoint as="offset" />
          </mxGeometry>
        </mxCell>
        <mxCell id="W9Ks_EkjWokIj7THZj_N-3" value="JUGADORES" style="rounded=0;whiteSpace=wrap;html=1;" parent="1" vertex="1">
          <mxGeometry x="220" y="440" width="120" height="60" as="geometry" />
        </mxCell>
        <mxCell id="W9Ks_EkjWokIj7THZj_N-4" value="PARTIDA" style="rounded=0;whiteSpace=wrap;html=1;" parent="1" vertex="1">
          <mxGeometry x="354" y="350" width="120" height="60" as="geometry" />
        </mxCell>
        <mxCell id="W9Ks_EkjWokIj7THZj_N-5" value="LICENCIA" style="whiteSpace=wrap;html=1;" parent="1" vertex="1">
          <mxGeometry x="50" y="720" width="120" height="60" as="geometry" />
        </mxCell>
        <mxCell id="W9Ks_EkjWokIj7THZj_N-6" value="FEDERACIONES&lt;div&gt;NACIONALES&lt;/div&gt;" style="rounded=0;whiteSpace=wrap;html=1;" parent="1" vertex="1">
          <mxGeometry x="680" y="900" width="120" height="60" as="geometry" />
        </mxCell>
        <mxCell id="W9Ks_EkjWokIj7THZj_N-7" value="HOTEL" style="rounded=0;whiteSpace=wrap;html=1;" parent="1" vertex="1">
          <mxGeometry x="-5" y="1000" width="120" height="60" as="geometry" />
        </mxCell>
        <mxCell id="W9Ks_EkjWokIj7THZj_N-8" value="HABITACION" style="rounded=0;whiteSpace=wrap;html=1;" parent="1" vertex="1">
          <mxGeometry x="295" y="1000" width="120" height="60" as="geometry" />
        </mxCell>
        <mxCell id="W9Ks_EkjWokIj7THZj_N-19" style="edgeStyle=orthogonalEdgeStyle;rounded=0;orthogonalLoop=1;jettySize=auto;html=1;entryX=0.5;entryY=1;entryDx=0;entryDy=0;" parent="1" source="W9Ks_EkjWokIj7THZj_N-9" target="W9Ks_EkjWokIj7THZj_N-12" edge="1">
          <mxGeometry relative="1" as="geometry" />
        </mxCell>
        <mxCell id="TMby_tyriAQ5ey5jKDCZ-7" value="0:N" style="edgeLabel;html=1;align=center;verticalAlign=middle;resizable=0;points=[];" parent="W9Ks_EkjWokIj7THZj_N-19" vertex="1" connectable="0">
          <mxGeometry x="0.6849" y="-1" relative="1" as="geometry">
            <mxPoint as="offset" />
          </mxGeometry>
        </mxCell>
        <mxCell id="W9Ks_EkjWokIj7THZj_N-9" value="PERSONAS" style="rounded=0;whiteSpace=wrap;html=1;" parent="1" vertex="1">
          <mxGeometry x="370" y="710" width="120" height="60" as="geometry" />
        </mxCell>
        <mxCell id="W9Ks_EkjWokIj7THZj_N-10" value="SALAS HOTEL" style="rounded=0;whiteSpace=wrap;html=1;" parent="1" vertex="1">
          <mxGeometry x="420" y="1250" width="125" height="70" as="geometry" />
        </mxCell>
        <mxCell id="W9Ks_EkjWokIj7THZj_N-11" value="MOVIMIENTOS" style="rounded=0;whiteSpace=wrap;html=1;" parent="1" vertex="1">
          <mxGeometry x="335" y="20" width="120" height="60" as="geometry" />
        </mxCell>
        <mxCell id="W9Ks_EkjWokIj7THZj_N-12" value="AGRUPAN" style="rhombus;whiteSpace=wrap;html=1;" parent="1" vertex="1">
          <mxGeometry x="240" y="560" width="80" height="80" as="geometry" />
        </mxCell>
        <mxCell id="TMby_tyriAQ5ey5jKDCZ-31" style="edgeStyle=orthogonalEdgeStyle;rounded=0;orthogonalLoop=1;jettySize=auto;html=1;entryX=0.5;entryY=0;entryDx=0;entryDy=0;endArrow=baseDash;endFill=0;" parent="1" source="W9Ks_EkjWokIj7THZj_N-15" target="W9Ks_EkjWokIj7THZj_N-9" edge="1">
          <mxGeometry relative="1" as="geometry">
            <Array as="points">
              <mxPoint x="640" y="680" />
              <mxPoint x="430" y="680" />
            </Array>
          </mxGeometry>
        </mxCell>
        <mxCell id="TMby_tyriAQ5ey5jKDCZ-32" value="0:N" style="edgeLabel;html=1;align=center;verticalAlign=middle;resizable=0;points=[];" parent="TMby_tyriAQ5ey5jKDCZ-31" vertex="1" connectable="0">
          <mxGeometry x="0.6542" y="-2" relative="1" as="geometry">
            <mxPoint x="157" as="offset" />
          </mxGeometry>
        </mxCell>
        <mxCell id="TMby_tyriAQ5ey5jKDCZ-41" style="edgeStyle=orthogonalEdgeStyle;rounded=0;orthogonalLoop=1;jettySize=auto;html=1;entryX=0.5;entryY=1;entryDx=0;entryDy=0;endArrow=baseDash;endFill=0;" parent="1" source="W9Ks_EkjWokIj7THZj_N-15" target="W9Ks_EkjWokIj7THZj_N-2" edge="1">
          <mxGeometry relative="1" as="geometry" />
        </mxCell>
        <mxCell id="TMby_tyriAQ5ey5jKDCZ-42" value="0:1" style="edgeLabel;html=1;align=center;verticalAlign=middle;resizable=0;points=[];" parent="TMby_tyriAQ5ey5jKDCZ-41" vertex="1" connectable="0">
          <mxGeometry x="-0.0909" y="1" relative="1" as="geometry">
            <mxPoint as="offset" />
          </mxGeometry>
        </mxCell>
        <mxCell id="W9Ks_EkjWokIj7THZj_N-15" value="AGRUPAN" style="rhombus;whiteSpace=wrap;html=1;" parent="1" vertex="1">
          <mxGeometry x="600" y="590" width="80" height="80" as="geometry" />
        </mxCell>
        <mxCell id="TMby_tyriAQ5ey5jKDCZ-17" style="edgeStyle=orthogonalEdgeStyle;rounded=0;orthogonalLoop=1;jettySize=auto;html=1;entryX=0.25;entryY=1;entryDx=0;entryDy=0;endArrow=baseDash;endFill=0;" parent="1" source="W9Ks_EkjWokIj7THZj_N-25" target="W9Ks_EkjWokIj7THZj_N-9" edge="1">
          <mxGeometry relative="1" as="geometry" />
        </mxCell>
        <mxCell id="TMby_tyriAQ5ey5jKDCZ-20" value="0:N" style="edgeLabel;html=1;align=center;verticalAlign=middle;resizable=0;points=[];" parent="TMby_tyriAQ5ey5jKDCZ-17" vertex="1" connectable="0">
          <mxGeometry x="-0.679" y="-2" relative="1" as="geometry">
            <mxPoint as="offset" />
          </mxGeometry>
        </mxCell>
        <mxCell id="TMby_tyriAQ5ey5jKDCZ-18" style="edgeStyle=orthogonalEdgeStyle;rounded=0;orthogonalLoop=1;jettySize=auto;html=1;entryX=0.5;entryY=0;entryDx=0;entryDy=0;endArrow=baseDash;endFill=0;" parent="1" source="W9Ks_EkjWokIj7THZj_N-25" target="W9Ks_EkjWokIj7THZj_N-93" edge="1">
          <mxGeometry relative="1" as="geometry" />
        </mxCell>
        <mxCell id="TMby_tyriAQ5ey5jKDCZ-21" value="0:1" style="edgeLabel;html=1;align=center;verticalAlign=middle;resizable=0;points=[];" parent="TMby_tyriAQ5ey5jKDCZ-18" vertex="1" connectable="0">
          <mxGeometry x="-0.0744" relative="1" as="geometry">
            <mxPoint as="offset" />
          </mxGeometry>
        </mxCell>
        <mxCell id="W9Ks_EkjWokIj7THZj_N-25" value="ALOJAN" style="rhombus;whiteSpace=wrap;html=1;" parent="1" vertex="1">
          <mxGeometry x="315" y="870" width="80" height="80" as="geometry" />
        </mxCell>
        <mxCell id="TMby_tyriAQ5ey5jKDCZ-3" style="edgeStyle=orthogonalEdgeStyle;rounded=0;orthogonalLoop=1;jettySize=auto;html=1;entryX=0.5;entryY=0;entryDx=0;entryDy=0;endArrow=baseDash;endFill=0;" parent="1" source="W9Ks_EkjWokIj7THZj_N-27" target="W9Ks_EkjWokIj7THZj_N-5" edge="1">
          <mxGeometry relative="1" as="geometry" />
        </mxCell>
        <mxCell id="TMby_tyriAQ5ey5jKDCZ-5" value="0:N" style="edgeLabel;html=1;align=center;verticalAlign=middle;resizable=0;points=[];" parent="TMby_tyriAQ5ey5jKDCZ-3" vertex="1" connectable="0">
          <mxGeometry x="-0.3576" y="-1" relative="1" as="geometry">
            <mxPoint as="offset" />
          </mxGeometry>
        </mxCell>
        <mxCell id="W9Ks_EkjWokIj7THZj_N-27" value="TIENEN" style="rhombus;whiteSpace=wrap;html=1;" parent="1" vertex="1">
          <mxGeometry x="70" y="585" width="80" height="80" as="geometry" />
        </mxCell>
        <mxCell id="TMby_tyriAQ5ey5jKDCZ-28" style="edgeStyle=orthogonalEdgeStyle;rounded=0;orthogonalLoop=1;jettySize=auto;html=1;entryX=0.5;entryY=0;entryDx=0;entryDy=0;endArrow=baseDash;endFill=0;" parent="1" source="W9Ks_EkjWokIj7THZj_N-29" target="W9Ks_EkjWokIj7THZj_N-6" edge="1">
          <mxGeometry relative="1" as="geometry" />
        </mxCell>
        <mxCell id="TMby_tyriAQ5ey5jKDCZ-35" value="0:N" style="edgeLabel;html=1;align=center;verticalAlign=middle;resizable=0;points=[];" parent="TMby_tyriAQ5ey5jKDCZ-28" vertex="1" connectable="0">
          <mxGeometry x="0.5086" relative="1" as="geometry">
            <mxPoint as="offset" />
          </mxGeometry>
        </mxCell>
        <mxCell id="TMby_tyriAQ5ey5jKDCZ-33" style="edgeStyle=orthogonalEdgeStyle;rounded=0;orthogonalLoop=1;jettySize=auto;html=1;entryX=1;entryY=0.5;entryDx=0;entryDy=0;endArrow=baseDash;endFill=0;" parent="1" source="W9Ks_EkjWokIj7THZj_N-29" target="W9Ks_EkjWokIj7THZj_N-9" edge="1">
          <mxGeometry relative="1" as="geometry">
            <Array as="points">
              <mxPoint x="740" y="740" />
            </Array>
          </mxGeometry>
        </mxCell>
        <mxCell id="TMby_tyriAQ5ey5jKDCZ-34" value="0:1" style="edgeLabel;html=1;align=center;verticalAlign=middle;resizable=0;points=[];" parent="TMby_tyriAQ5ey5jKDCZ-33" vertex="1" connectable="0">
          <mxGeometry x="-0.8333" relative="1" as="geometry">
            <mxPoint as="offset" />
          </mxGeometry>
        </mxCell>
        <mxCell id="W9Ks_EkjWokIj7THZj_N-29" value="ADSCRITO" style="rhombus;whiteSpace=wrap;html=1;" parent="1" vertex="1">
          <mxGeometry x="700" y="790" width="80" height="80" as="geometry" />
        </mxCell>
        <mxCell id="TMby_tyriAQ5ey5jKDCZ-25" style="edgeStyle=orthogonalEdgeStyle;rounded=0;orthogonalLoop=1;jettySize=auto;html=1;entryX=0.5;entryY=0;entryDx=0;entryDy=0;endArrow=baseDash;endFill=0;" parent="1" source="W9Ks_EkjWokIj7THZj_N-31" target="W9Ks_EkjWokIj7THZj_N-10" edge="1">
          <mxGeometry relative="1" as="geometry" />
        </mxCell>
        <mxCell id="TMby_tyriAQ5ey5jKDCZ-27" value="0:N" style="edgeLabel;html=1;align=center;verticalAlign=middle;resizable=0;points=[];" parent="TMby_tyriAQ5ey5jKDCZ-25" vertex="1" connectable="0">
          <mxGeometry x="-0.3631" y="-2" relative="1" as="geometry">
            <mxPoint as="offset" />
          </mxGeometry>
        </mxCell>
        <mxCell id="W9Ks_EkjWokIj7THZj_N-31" value="RESERVAR" style="rhombus;whiteSpace=wrap;html=1;" parent="1" vertex="1">
          <mxGeometry x="442.5" y="1120" width="80" height="80" as="geometry" />
        </mxCell>
        <mxCell id="W9Ks_EkjWokIj7THZj_N-53" style="edgeStyle=orthogonalEdgeStyle;rounded=0;orthogonalLoop=1;jettySize=auto;html=1;endArrow=baseDash;endFill=0;" parent="1" source="W9Ks_EkjWokIj7THZj_N-40" target="W9Ks_EkjWokIj7THZj_N-3" edge="1">
          <mxGeometry relative="1" as="geometry" />
        </mxCell>
        <mxCell id="W9Ks_EkjWokIj7THZj_N-40" value="NOMBRE" style="ellipse;whiteSpace=wrap;html=1;" parent="1" vertex="1">
          <mxGeometry x="50" y="310" width="90" height="60" as="geometry" />
        </mxCell>
        <mxCell id="W9Ks_EkjWokIj7THZj_N-43" style="edgeStyle=orthogonalEdgeStyle;rounded=0;orthogonalLoop=1;jettySize=auto;html=1;endArrow=baseDash;endFill=0;" parent="1" source="W9Ks_EkjWokIj7THZj_N-42" target="W9Ks_EkjWokIj7THZj_N-3" edge="1">
          <mxGeometry relative="1" as="geometry" />
        </mxCell>
        <mxCell id="W9Ks_EkjWokIj7THZj_N-45" value="FECHA&lt;span style=&quot;color: rgba(0, 0, 0, 0); font-family: monospace; font-size: 0px; text-align: start; text-wrap: nowrap;&quot;&gt;%3CmxGraphModel%3E%3Croot%3E%3CmxCell%20id%3D%220%22%2F%3E%3CmxCell%20id%3D%221%22%20parent%3D%220%22%2F%3E%3CmxCell%20id%3D%222%22%20value%3D%22NOMBRE%22%20style%3D%22ellipse%3BwhiteSpace%3Dwrap%3Bhtml%3D1%3B%22%20vertex%3D%221%22%20parent%3D%221%22%3E%3CmxGeometry%20x%3D%2250%22%20y%3D%22310%22%20width%3D%2290%22%20height%3D%2260%22%20as%3D%22geometry%22%2F%3E%3C%2FmxCell%3E%3C%2Froot%3E%3C%2FmxGraphModel%3E&lt;/span&gt;" style="ellipse;whiteSpace=wrap;html=1;" parent="1" vertex="1">
          <mxGeometry x="10" y="240" width="90" height="60" as="geometry" />
        </mxCell>
        <mxCell id="W9Ks_EkjWokIj7THZj_N-55" style="edgeStyle=orthogonalEdgeStyle;rounded=0;orthogonalLoop=1;jettySize=auto;html=1;endArrow=baseDash;endFill=0;" parent="1" source="W9Ks_EkjWokIj7THZj_N-47" target="W9Ks_EkjWokIj7THZj_N-3" edge="1">
          <mxGeometry relative="1" as="geometry" />
        </mxCell>
        <mxCell id="W9Ks_EkjWokIj7THZj_N-47" value="POSICIÓN&lt;div&gt;RANKING&lt;/div&gt;" style="ellipse;whiteSpace=wrap;html=1;" parent="1" vertex="1">
          <mxGeometry x="-50" y="350" width="90" height="60" as="geometry" />
        </mxCell>
        <mxCell id="W9Ks_EkjWokIj7THZj_N-50" style="edgeStyle=orthogonalEdgeStyle;rounded=0;orthogonalLoop=1;jettySize=auto;html=1;entryX=-0.001;entryY=0.318;entryDx=0;entryDy=0;entryPerimeter=0;endArrow=baseDash;endFill=0;" parent="1" source="W9Ks_EkjWokIj7THZj_N-41" target="W9Ks_EkjWokIj7THZj_N-3" edge="1">
          <mxGeometry relative="1" as="geometry" />
        </mxCell>
        <mxCell id="W9Ks_EkjWokIj7THZj_N-51" style="edgeStyle=orthogonalEdgeStyle;rounded=0;orthogonalLoop=1;jettySize=auto;html=1;endArrow=baseDash;endFill=0;" parent="1" source="W9Ks_EkjWokIj7THZj_N-48" edge="1">
          <mxGeometry relative="1" as="geometry">
            <mxPoint x="299" y="440" as="targetPoint" />
          </mxGeometry>
        </mxCell>
        <mxCell id="W9Ks_EkjWokIj7THZj_N-52" style="edgeStyle=orthogonalEdgeStyle;rounded=0;orthogonalLoop=1;jettySize=auto;html=1;entryX=0.319;entryY=0;entryDx=0;entryDy=0;entryPerimeter=0;endArrow=baseDash;endFill=0;" parent="1" source="W9Ks_EkjWokIj7THZj_N-46" target="W9Ks_EkjWokIj7THZj_N-3" edge="1">
          <mxGeometry relative="1" as="geometry" />
        </mxCell>
        <mxCell id="W9Ks_EkjWokIj7THZj_N-54" style="edgeStyle=orthogonalEdgeStyle;rounded=0;orthogonalLoop=1;jettySize=auto;html=1;endArrow=baseDash;endFill=0;" parent="1" source="W9Ks_EkjWokIj7THZj_N-45" edge="1">
          <mxGeometry relative="1" as="geometry">
            <mxPoint x="238" y="440" as="targetPoint" />
          </mxGeometry>
        </mxCell>
        <mxCell id="W9Ks_EkjWokIj7THZj_N-41" value="&lt;u&gt;NIF&lt;/u&gt;" style="ellipse;whiteSpace=wrap;html=1;" parent="1" vertex="1">
          <mxGeometry x="90" y="390" width="90" height="60" as="geometry" />
        </mxCell>
        <mxCell id="W9Ks_EkjWokIj7THZj_N-42" value="NºFEDERADO" style="ellipse;whiteSpace=wrap;html=1;" parent="1" vertex="1">
          <mxGeometry x="160" y="320" width="90" height="60" as="geometry" />
        </mxCell>
        <mxCell id="W9Ks_EkjWokIj7THZj_N-46" value="APELLIDOS" style="ellipse;whiteSpace=wrap;html=1;" parent="1" vertex="1">
          <mxGeometry x="140" y="230" width="90" height="60" as="geometry" />
        </mxCell>
        <mxCell id="TMby_tyriAQ5ey5jKDCZ-48" style="edgeStyle=orthogonalEdgeStyle;rounded=0;orthogonalLoop=1;jettySize=auto;html=1;entryX=0.5;entryY=0;entryDx=0;entryDy=0;endArrow=baseDash;endFill=0;" parent="1" source="W9Ks_EkjWokIj7THZj_N-57" target="W9Ks_EkjWokIj7THZj_N-176" edge="1">
          <mxGeometry relative="1" as="geometry" />
        </mxCell>
        <mxCell id="W9Ks_EkjWokIj7THZj_N-57" value="JUGAR" style="rhombus;whiteSpace=wrap;html=1;" parent="1" vertex="1">
          <mxGeometry x="360" y="470" width="80" height="80" as="geometry" />
        </mxCell>
        <mxCell id="W9Ks_EkjWokIj7THZj_N-59" style="edgeStyle=orthogonalEdgeStyle;rounded=0;orthogonalLoop=1;jettySize=auto;html=1;entryX=0.383;entryY=1;entryDx=0;entryDy=0;entryPerimeter=0;endArrow=baseDash;endFill=0;" parent="1" source="W9Ks_EkjWokIj7THZj_N-57" target="W9Ks_EkjWokIj7THZj_N-4" edge="1">
          <mxGeometry relative="1" as="geometry" />
        </mxCell>
        <mxCell id="TMby_tyriAQ5ey5jKDCZ-46" value="1:N" style="edgeLabel;html=1;align=center;verticalAlign=middle;resizable=0;points=[];" parent="W9Ks_EkjWokIj7THZj_N-59" vertex="1" connectable="0">
          <mxGeometry x="-0.425" relative="1" as="geometry">
            <mxPoint as="offset" />
          </mxGeometry>
        </mxCell>
        <mxCell id="TMby_tyriAQ5ey5jKDCZ-49" style="edgeStyle=orthogonalEdgeStyle;rounded=0;orthogonalLoop=1;jettySize=auto;html=1;entryX=0.5;entryY=0;entryDx=0;entryDy=0;endArrow=baseDash;endFill=0;" parent="1" source="W9Ks_EkjWokIj7THZj_N-64" target="W9Ks_EkjWokIj7THZj_N-2" edge="1">
          <mxGeometry relative="1" as="geometry" />
        </mxCell>
        <mxCell id="TMby_tyriAQ5ey5jKDCZ-50" value="0:1" style="edgeLabel;html=1;align=center;verticalAlign=middle;resizable=0;points=[];" parent="TMby_tyriAQ5ey5jKDCZ-49" vertex="1" connectable="0">
          <mxGeometry x="0.039" y="1" relative="1" as="geometry">
            <mxPoint as="offset" />
          </mxGeometry>
        </mxCell>
        <mxCell id="W9Ks_EkjWokIj7THZj_N-64" value="REGULAN" style="rhombus;whiteSpace=wrap;html=1;" parent="1" vertex="1">
          <mxGeometry x="600" y="342" width="80" height="80" as="geometry" />
        </mxCell>
        <mxCell id="W9Ks_EkjWokIj7THZj_N-77" style="edgeStyle=orthogonalEdgeStyle;rounded=0;orthogonalLoop=1;jettySize=auto;html=1;entryX=1;entryY=0.25;entryDx=0;entryDy=0;endArrow=baseDash;endFill=0;" parent="1" source="W9Ks_EkjWokIj7THZj_N-66" target="W9Ks_EkjWokIj7THZj_N-2" edge="1">
          <mxGeometry relative="1" as="geometry" />
        </mxCell>
        <mxCell id="W9Ks_EkjWokIj7THZj_N-66" value="APELLIDOS" style="ellipse;whiteSpace=wrap;html=1;" parent="1" vertex="1">
          <mxGeometry x="760" y="372" width="90" height="60" as="geometry" />
        </mxCell>
        <mxCell id="W9Ks_EkjWokIj7THZj_N-68" value="NºCOLEGIADO" style="ellipse;whiteSpace=wrap;html=1;" parent="1" vertex="1">
          <mxGeometry x="695" y="322" width="90" height="60" as="geometry" />
        </mxCell>
        <mxCell id="W9Ks_EkjWokIj7THZj_N-76" style="edgeStyle=orthogonalEdgeStyle;rounded=0;orthogonalLoop=1;jettySize=auto;html=1;endArrow=baseDash;endFill=0;" parent="1" source="W9Ks_EkjWokIj7THZj_N-69" target="W9Ks_EkjWokIj7THZj_N-2" edge="1">
          <mxGeometry relative="1" as="geometry" />
        </mxCell>
        <mxCell id="W9Ks_EkjWokIj7THZj_N-69" value="&lt;u&gt;NIF&lt;/u&gt;" style="ellipse;whiteSpace=wrap;html=1;" parent="1" vertex="1">
          <mxGeometry x="730" y="442" width="90" height="60" as="geometry" />
        </mxCell>
        <mxCell id="W9Ks_EkjWokIj7THZj_N-74" style="edgeStyle=orthogonalEdgeStyle;rounded=0;orthogonalLoop=1;jettySize=auto;html=1;endArrow=baseDash;endFill=0;" parent="1" source="W9Ks_EkjWokIj7THZj_N-70" target="W9Ks_EkjWokIj7THZj_N-3" edge="1">
          <mxGeometry relative="1" as="geometry" />
        </mxCell>
        <mxCell id="W9Ks_EkjWokIj7THZj_N-70" value="TELEFONO" style="ellipse;whiteSpace=wrap;html=1;" parent="1" vertex="1">
          <mxGeometry x="195" y="150" width="90" height="60" as="geometry" />
        </mxCell>
        <mxCell id="W9Ks_EkjWokIj7THZj_N-71" value="FECHA" style="ellipse;whiteSpace=wrap;html=1;" parent="1" vertex="1">
          <mxGeometry x="830" y="427" width="90" height="60" as="geometry" />
        </mxCell>
        <mxCell id="W9Ks_EkjWokIj7THZj_N-81" style="edgeStyle=orthogonalEdgeStyle;rounded=0;orthogonalLoop=1;jettySize=auto;html=1;endArrow=baseDash;endFill=0;entryX=1;entryY=0.928;entryDx=0;entryDy=0;entryPerimeter=0;" parent="1" source="W9Ks_EkjWokIj7THZj_N-73" target="W9Ks_EkjWokIj7THZj_N-2" edge="1">
          <mxGeometry relative="1" as="geometry">
            <mxPoint x="700" y="530" as="targetPoint" />
          </mxGeometry>
        </mxCell>
        <mxCell id="W9Ks_EkjWokIj7THZj_N-73" value="TELEFONO" style="ellipse;whiteSpace=wrap;html=1;" parent="1" vertex="1">
          <mxGeometry x="880" y="495" width="90" height="60" as="geometry" />
        </mxCell>
        <mxCell id="W9Ks_EkjWokIj7THZj_N-48" value="FECHA&lt;div&gt;FEDERADO&lt;/div&gt;" style="ellipse;whiteSpace=wrap;html=1;" parent="1" vertex="1">
          <mxGeometry x="240" y="260" width="90" height="60" as="geometry" />
        </mxCell>
        <mxCell id="W9Ks_EkjWokIj7THZj_N-80" style="edgeStyle=orthogonalEdgeStyle;rounded=0;orthogonalLoop=1;jettySize=auto;html=1;entryX=0.926;entryY=1;entryDx=0;entryDy=0;endArrow=baseDash;endFill=0;entryPerimeter=0;" parent="1" source="W9Ks_EkjWokIj7THZj_N-75" target="W9Ks_EkjWokIj7THZj_N-2" edge="1">
          <mxGeometry relative="1" as="geometry" />
        </mxCell>
        <mxCell id="W9Ks_EkjWokIj7THZj_N-75" value="AÑOS SIENDO&lt;div&gt;ARBITRO&lt;/div&gt;" style="ellipse;whiteSpace=wrap;html=1;" parent="1" vertex="1">
          <mxGeometry x="720" y="572" width="90" height="60" as="geometry" />
        </mxCell>
        <mxCell id="W9Ks_EkjWokIj7THZj_N-78" style="edgeStyle=orthogonalEdgeStyle;rounded=0;orthogonalLoop=1;jettySize=auto;html=1;entryX=0.919;entryY=0;entryDx=0;entryDy=0;entryPerimeter=0;endArrow=baseDash;endFill=0;" parent="1" source="W9Ks_EkjWokIj7THZj_N-68" target="W9Ks_EkjWokIj7THZj_N-2" edge="1">
          <mxGeometry relative="1" as="geometry" />
        </mxCell>
        <mxCell id="W9Ks_EkjWokIj7THZj_N-79" style="edgeStyle=orthogonalEdgeStyle;rounded=0;orthogonalLoop=1;jettySize=auto;html=1;entryX=1;entryY=0.776;entryDx=0;entryDy=0;entryPerimeter=0;endArrow=baseDash;endFill=0;" parent="1" source="W9Ks_EkjWokIj7THZj_N-72" target="W9Ks_EkjWokIj7THZj_N-2" edge="1">
          <mxGeometry relative="1" as="geometry" />
        </mxCell>
        <mxCell id="W9Ks_EkjWokIj7THZj_N-72" value="NOMBRE" style="ellipse;whiteSpace=wrap;html=1;" parent="1" vertex="1">
          <mxGeometry x="765" y="502" width="90" height="60" as="geometry" />
        </mxCell>
        <mxCell id="TMby_tyriAQ5ey5jKDCZ-13" style="edgeStyle=orthogonalEdgeStyle;rounded=0;orthogonalLoop=1;jettySize=auto;html=1;entryX=1;entryY=0.339;entryDx=0;entryDy=0;endArrow=baseDash;endFill=0;entryPerimeter=0;" parent="1" source="W9Ks_EkjWokIj7THZj_N-87" target="W9Ks_EkjWokIj7THZj_N-7" edge="1">
          <mxGeometry relative="1" as="geometry">
            <Array as="points">
              <mxPoint x="137" y="1020" />
            </Array>
          </mxGeometry>
        </mxCell>
        <mxCell id="TMby_tyriAQ5ey5jKDCZ-14" value="0:1" style="edgeLabel;html=1;align=center;verticalAlign=middle;resizable=0;points=[];" parent="TMby_tyriAQ5ey5jKDCZ-13" vertex="1" connectable="0">
          <mxGeometry x="-0.2789" y="1" relative="1" as="geometry">
            <mxPoint as="offset" />
          </mxGeometry>
        </mxCell>
        <mxCell id="TMby_tyriAQ5ey5jKDCZ-22" style="edgeStyle=orthogonalEdgeStyle;rounded=0;orthogonalLoop=1;jettySize=auto;html=1;entryX=0;entryY=0.5;entryDx=0;entryDy=0;endArrow=baseDash;endFill=0;" parent="1" source="W9Ks_EkjWokIj7THZj_N-87" target="W9Ks_EkjWokIj7THZj_N-93" edge="1">
          <mxGeometry relative="1" as="geometry" />
        </mxCell>
        <mxCell id="TMby_tyriAQ5ey5jKDCZ-23" value="0:N" style="edgeLabel;html=1;align=center;verticalAlign=middle;resizable=0;points=[];" parent="TMby_tyriAQ5ey5jKDCZ-22" vertex="1" connectable="0">
          <mxGeometry y="1" relative="1" as="geometry">
            <mxPoint as="offset" />
          </mxGeometry>
        </mxCell>
        <mxCell id="W9Ks_EkjWokIj7THZj_N-87" value="CONTIENE" style="rhombus;whiteSpace=wrap;html=1;" parent="1" vertex="1">
          <mxGeometry x="160" y="990" width="80" height="80" as="geometry" />
        </mxCell>
        <mxCell id="W9Ks_EkjWokIj7THZj_N-95" value="TELÉFONO" style="ellipse;whiteSpace=wrap;html=1;" parent="1" vertex="1">
          <mxGeometry x="-220" y="953" width="90" height="60" as="geometry" />
        </mxCell>
        <mxCell id="W9Ks_EkjWokIj7THZj_N-103" style="edgeStyle=orthogonalEdgeStyle;rounded=0;orthogonalLoop=1;jettySize=auto;html=1;endArrow=baseDash;endFill=0;" parent="1" source="W9Ks_EkjWokIj7THZj_N-96" edge="1">
          <mxGeometry relative="1" as="geometry">
            <mxPoint y="1060" as="targetPoint" />
            <Array as="points">
              <mxPoint y="1090" />
              <mxPoint y="1060" />
            </Array>
          </mxGeometry>
        </mxCell>
        <mxCell id="W9Ks_EkjWokIj7THZj_N-96" value="DIRECCIÓN" style="ellipse;whiteSpace=wrap;html=1;" parent="1" vertex="1">
          <mxGeometry x="-110" y="1060" width="90" height="60" as="geometry" />
        </mxCell>
        <mxCell id="W9Ks_EkjWokIj7THZj_N-97" value="CATEGORIA" style="ellipse;whiteSpace=wrap;html=1;" parent="1" vertex="1">
          <mxGeometry x="-20" y="1100" width="90" height="60" as="geometry" />
        </mxCell>
        <mxCell id="W9Ks_EkjWokIj7THZj_N-98" value="NOMBRE" style="ellipse;whiteSpace=wrap;html=1;" parent="1" vertex="1">
          <mxGeometry x="-130" y="994" width="90" height="60" as="geometry" />
        </mxCell>
        <mxCell id="W9Ks_EkjWokIj7THZj_N-100" style="edgeStyle=orthogonalEdgeStyle;rounded=0;orthogonalLoop=1;jettySize=auto;html=1;entryX=0.5;entryY=0;entryDx=0;entryDy=0;endArrow=baseDash;endFill=0;" parent="1" source="W9Ks_EkjWokIj7THZj_N-99" target="W9Ks_EkjWokIj7THZj_N-7" edge="1">
          <mxGeometry relative="1" as="geometry" />
        </mxCell>
        <mxCell id="W9Ks_EkjWokIj7THZj_N-99" value="&lt;u&gt;CÓDIGO&lt;/u&gt;" style="ellipse;whiteSpace=wrap;html=1;" parent="1" vertex="1">
          <mxGeometry x="-20" y="880" width="90" height="60" as="geometry" />
        </mxCell>
        <mxCell id="W9Ks_EkjWokIj7THZj_N-101" style="edgeStyle=orthogonalEdgeStyle;rounded=0;orthogonalLoop=1;jettySize=auto;html=1;endArrow=baseDash;endFill=0;" parent="1" source="W9Ks_EkjWokIj7THZj_N-94" edge="1">
          <mxGeometry relative="1" as="geometry">
            <mxPoint x="48" y="1000" as="targetPoint" />
          </mxGeometry>
        </mxCell>
        <mxCell id="W9Ks_EkjWokIj7THZj_N-102" style="edgeStyle=orthogonalEdgeStyle;rounded=0;orthogonalLoop=1;jettySize=auto;html=1;entryX=0;entryY=0.4;entryDx=0;entryDy=0;entryPerimeter=0;endArrow=baseDash;endFill=0;" parent="1" source="W9Ks_EkjWokIj7THZj_N-98" target="W9Ks_EkjWokIj7THZj_N-7" edge="1">
          <mxGeometry relative="1" as="geometry" />
        </mxCell>
        <mxCell id="W9Ks_EkjWokIj7THZj_N-104" style="edgeStyle=orthogonalEdgeStyle;rounded=0;orthogonalLoop=1;jettySize=auto;html=1;entryX=0.125;entryY=1;entryDx=0;entryDy=0;entryPerimeter=0;endArrow=baseDash;endFill=0;" parent="1" source="W9Ks_EkjWokIj7THZj_N-97" target="W9Ks_EkjWokIj7THZj_N-7" edge="1">
          <mxGeometry relative="1" as="geometry" />
        </mxCell>
        <mxCell id="W9Ks_EkjWokIj7THZj_N-105" style="edgeStyle=orthogonalEdgeStyle;rounded=0;orthogonalLoop=1;jettySize=auto;html=1;entryX=0.206;entryY=0.004;entryDx=0;entryDy=0;entryPerimeter=0;endArrow=baseDash;endFill=0;" parent="1" source="W9Ks_EkjWokIj7THZj_N-95" target="W9Ks_EkjWokIj7THZj_N-7" edge="1">
          <mxGeometry relative="1" as="geometry" />
        </mxCell>
        <mxCell id="W9Ks_EkjWokIj7THZj_N-94" value="NºHABITACIONES" style="ellipse;whiteSpace=wrap;html=1;" parent="1" vertex="1">
          <mxGeometry x="-120" y="920" width="110" height="70" as="geometry" />
        </mxCell>
        <mxCell id="W9Ks_EkjWokIj7THZj_N-111" style="edgeStyle=orthogonalEdgeStyle;rounded=0;orthogonalLoop=1;jettySize=auto;html=1;entryX=0.25;entryY=1;entryDx=0;entryDy=0;endArrow=baseDash;endFill=0;" parent="1" source="W9Ks_EkjWokIj7THZj_N-106" target="W9Ks_EkjWokIj7THZj_N-93" edge="1">
          <mxGeometry relative="1" as="geometry" />
        </mxCell>
        <mxCell id="W9Ks_EkjWokIj7THZj_N-106" value="FECHA&lt;div&gt;ENTRADA&lt;/div&gt;" style="ellipse;whiteSpace=wrap;html=1;" parent="1" vertex="1">
          <mxGeometry x="190" y="1090" width="90" height="60" as="geometry" />
        </mxCell>
        <mxCell id="W9Ks_EkjWokIj7THZj_N-107" value="FECHA&lt;div&gt;SALIDA&lt;/div&gt;" style="ellipse;whiteSpace=wrap;html=1;" parent="1" vertex="1">
          <mxGeometry x="260" y="1160" width="90" height="60" as="geometry" />
        </mxCell>
        <mxCell id="W9Ks_EkjWokIj7THZj_N-108" value="&lt;u&gt;NUMERO&lt;/u&gt;" style="ellipse;whiteSpace=wrap;html=1;" parent="1" vertex="1">
          <mxGeometry x="325" y="1109" width="90" height="60" as="geometry" />
        </mxCell>
        <mxCell id="W9Ks_EkjWokIj7THZj_N-109" style="edgeStyle=orthogonalEdgeStyle;rounded=0;orthogonalLoop=1;jettySize=auto;html=1;entryX=0.828;entryY=1.002;entryDx=0;entryDy=0;entryPerimeter=0;endArrow=baseDash;endFill=0;" parent="1" source="W9Ks_EkjWokIj7THZj_N-108" target="W9Ks_EkjWokIj7THZj_N-93" edge="1">
          <mxGeometry relative="1" as="geometry" />
        </mxCell>
        <mxCell id="W9Ks_EkjWokIj7THZj_N-110" style="edgeStyle=orthogonalEdgeStyle;rounded=0;orthogonalLoop=1;jettySize=auto;html=1;endArrow=baseDash;endFill=0;entryX=0.456;entryY=1;entryDx=0;entryDy=0;entryPerimeter=0;" parent="1" source="W9Ks_EkjWokIj7THZj_N-107" target="W9Ks_EkjWokIj7THZj_N-93" edge="1">
          <mxGeometry relative="1" as="geometry">
            <mxPoint x="350" y="1070" as="targetPoint" />
          </mxGeometry>
        </mxCell>
        <mxCell id="W9Ks_EkjWokIj7THZj_N-126" style="edgeStyle=orthogonalEdgeStyle;rounded=0;orthogonalLoop=1;jettySize=auto;html=1;entryX=-0.001;entryY=0.728;entryDx=0;entryDy=0;endArrow=baseDash;endFill=0;entryPerimeter=0;" parent="1" source="W9Ks_EkjWokIj7THZj_N-122" target="W9Ks_EkjWokIj7THZj_N-6" edge="1">
          <mxGeometry relative="1" as="geometry" />
        </mxCell>
        <mxCell id="W9Ks_EkjWokIj7THZj_N-131" style="edgeStyle=orthogonalEdgeStyle;rounded=0;orthogonalLoop=1;jettySize=auto;html=1;endArrow=baseDash;endFill=0;" parent="1" source="W9Ks_EkjWokIj7THZj_N-123" target="W9Ks_EkjWokIj7THZj_N-6" edge="1">
          <mxGeometry relative="1" as="geometry" />
        </mxCell>
        <mxCell id="W9Ks_EkjWokIj7THZj_N-123" value="FECHA" style="ellipse;whiteSpace=wrap;html=1;" parent="1" vertex="1">
          <mxGeometry x="735" y="1100" width="90" height="60" as="geometry" />
        </mxCell>
        <mxCell id="W9Ks_EkjWokIj7THZj_N-124" value="NºARBITROS" style="ellipse;whiteSpace=wrap;html=1;" parent="1" vertex="1">
          <mxGeometry x="810" y="1000" width="90" height="60" as="geometry" />
        </mxCell>
        <mxCell id="W9Ks_EkjWokIj7THZj_N-125" value="NºJUGADORES" style="ellipse;whiteSpace=wrap;html=1;" parent="1" vertex="1">
          <mxGeometry x="665" y="1050" width="90" height="60" as="geometry" />
        </mxCell>
        <mxCell id="W9Ks_EkjWokIj7THZj_N-127" style="edgeStyle=orthogonalEdgeStyle;rounded=0;orthogonalLoop=1;jettySize=auto;html=1;entryX=1;entryY=0.592;entryDx=0;entryDy=0;entryPerimeter=0;endArrow=baseDash;endFill=0;" parent="1" source="W9Ks_EkjWokIj7THZj_N-121" target="W9Ks_EkjWokIj7THZj_N-6" edge="1">
          <mxGeometry relative="1" as="geometry" />
        </mxCell>
        <mxCell id="W9Ks_EkjWokIj7THZj_N-128" style="edgeStyle=orthogonalEdgeStyle;rounded=0;orthogonalLoop=1;jettySize=auto;html=1;entryX=0.604;entryY=1.001;entryDx=0;entryDy=0;entryPerimeter=0;endArrow=baseDash;endFill=0;" parent="1" source="W9Ks_EkjWokIj7THZj_N-125" target="W9Ks_EkjWokIj7THZj_N-6" edge="1">
          <mxGeometry relative="1" as="geometry" />
        </mxCell>
        <mxCell id="W9Ks_EkjWokIj7THZj_N-130" style="edgeStyle=orthogonalEdgeStyle;rounded=0;orthogonalLoop=1;jettySize=auto;html=1;endArrow=baseDash;endFill=0;" parent="1" source="W9Ks_EkjWokIj7THZj_N-124" edge="1">
          <mxGeometry relative="1" as="geometry">
            <mxPoint x="761" y="960" as="targetPoint" />
          </mxGeometry>
        </mxCell>
        <mxCell id="W9Ks_EkjWokIj7THZj_N-122" value="&lt;u&gt;CÓDIGO&lt;/u&gt;" style="ellipse;whiteSpace=wrap;html=1;" parent="1" vertex="1">
          <mxGeometry x="610" y="980" width="90" height="60" as="geometry" />
        </mxCell>
        <mxCell id="W9Ks_EkjWokIj7THZj_N-121" value="NOMBRE&lt;div&gt;REGIÓN&lt;/div&gt;" style="ellipse;whiteSpace=wrap;html=1;" parent="1" vertex="1">
          <mxGeometry x="840" y="930" width="90" height="60" as="geometry" />
        </mxCell>
        <mxCell id="W9Ks_EkjWokIj7THZj_N-139" style="edgeStyle=orthogonalEdgeStyle;rounded=0;orthogonalLoop=1;jettySize=auto;html=1;entryX=1;entryY=0.25;entryDx=0;entryDy=0;endArrow=baseDash;endFill=0;" parent="1" source="W9Ks_EkjWokIj7THZj_N-134" target="W9Ks_EkjWokIj7THZj_N-10" edge="1">
          <mxGeometry relative="1" as="geometry" />
        </mxCell>
        <mxCell id="W9Ks_EkjWokIj7THZj_N-134" value="&lt;u&gt;NºSALA&lt;/u&gt;" style="ellipse;whiteSpace=wrap;html=1;" parent="1" vertex="1">
          <mxGeometry x="577.5" y="1168" width="90" height="60" as="geometry" />
        </mxCell>
        <mxCell id="W9Ks_EkjWokIj7THZj_N-137" style="edgeStyle=orthogonalEdgeStyle;rounded=0;orthogonalLoop=1;jettySize=auto;html=1;entryX=0.75;entryY=1;entryDx=0;entryDy=0;endArrow=baseDash;endFill=0;" parent="1" source="W9Ks_EkjWokIj7THZj_N-135" target="W9Ks_EkjWokIj7THZj_N-10" edge="1">
          <mxGeometry relative="1" as="geometry" />
        </mxCell>
        <mxCell id="W9Ks_EkjWokIj7THZj_N-135" value="DESCRIPCIÓN" style="ellipse;whiteSpace=wrap;html=1;" parent="1" vertex="1">
          <mxGeometry x="577.5" y="1320" width="90" height="60" as="geometry" />
        </mxCell>
        <mxCell id="W9Ks_EkjWokIj7THZj_N-138" style="edgeStyle=orthogonalEdgeStyle;rounded=0;orthogonalLoop=1;jettySize=auto;html=1;entryX=1;entryY=0.75;entryDx=0;entryDy=0;endArrow=baseDash;endFill=0;" parent="1" source="W9Ks_EkjWokIj7THZj_N-136" target="W9Ks_EkjWokIj7THZj_N-10" edge="1">
          <mxGeometry relative="1" as="geometry" />
        </mxCell>
        <mxCell id="W9Ks_EkjWokIj7THZj_N-136" value="CAPACIDAD" style="ellipse;whiteSpace=wrap;html=1;" parent="1" vertex="1">
          <mxGeometry x="577.5" y="1250" width="90" height="60" as="geometry" />
        </mxCell>
        <mxCell id="W9Ks_EkjWokIj7THZj_N-153" style="edgeStyle=orthogonalEdgeStyle;rounded=0;orthogonalLoop=1;jettySize=auto;html=1;entryX=0.75;entryY=0;entryDx=0;entryDy=0;endArrow=baseDash;endFill=0;" parent="1" source="W9Ks_EkjWokIj7THZj_N-140" target="W9Ks_EkjWokIj7THZj_N-4" edge="1">
          <mxGeometry relative="1" as="geometry" />
        </mxCell>
        <mxCell id="W9Ks_EkjWokIj7THZj_N-154" style="edgeStyle=orthogonalEdgeStyle;rounded=0;orthogonalLoop=1;jettySize=auto;html=1;entryX=0.75;entryY=0;entryDx=0;entryDy=0;endArrow=baseDash;endFill=0;" parent="1" source="W9Ks_EkjWokIj7THZj_N-142" target="W9Ks_EkjWokIj7THZj_N-4" edge="1">
          <mxGeometry relative="1" as="geometry" />
        </mxCell>
        <mxCell id="W9Ks_EkjWokIj7THZj_N-142" value="DURACIÓN" style="ellipse;whiteSpace=wrap;html=1;" parent="1" vertex="1">
          <mxGeometry x="527.5" y="300" width="90" height="60" as="geometry" />
        </mxCell>
        <mxCell id="W9Ks_EkjWokIj7THZj_N-155" style="edgeStyle=orthogonalEdgeStyle;rounded=0;orthogonalLoop=1;jettySize=auto;html=1;entryX=0.75;entryY=0;entryDx=0;entryDy=0;endArrow=baseDash;endFill=0;" parent="1" source="W9Ks_EkjWokIj7THZj_N-143" target="W9Ks_EkjWokIj7THZj_N-4" edge="1">
          <mxGeometry relative="1" as="geometry" />
        </mxCell>
        <mxCell id="W9Ks_EkjWokIj7THZj_N-143" value="FECHA" style="ellipse;whiteSpace=wrap;html=1;" parent="1" vertex="1">
          <mxGeometry x="590" y="230" width="90" height="60" as="geometry" />
        </mxCell>
        <mxCell id="W9Ks_EkjWokIj7THZj_N-146" value="SALAS HOTEL" style="rounded=0;whiteSpace=wrap;html=1;" parent="1" vertex="1">
          <mxGeometry x="426.25" y="1256.88" width="112.5" height="56.25" as="geometry" />
        </mxCell>
        <mxCell id="W9Ks_EkjWokIj7THZj_N-157" style="edgeStyle=orthogonalEdgeStyle;rounded=0;orthogonalLoop=1;jettySize=auto;html=1;entryX=0.75;entryY=0;entryDx=0;entryDy=0;endArrow=baseDash;endFill=0;" parent="1" source="W9Ks_EkjWokIj7THZj_N-144" target="W9Ks_EkjWokIj7THZj_N-4" edge="1">
          <mxGeometry relative="1" as="geometry" />
        </mxCell>
        <mxCell id="W9Ks_EkjWokIj7THZj_N-144" value="NOMBRES&lt;div&gt;JUGADORES&lt;/div&gt;" style="ellipse;whiteSpace=wrap;html=1;" parent="1" vertex="1">
          <mxGeometry x="530" y="160" width="90" height="60" as="geometry" />
        </mxCell>
        <mxCell id="TMby_tyriAQ5ey5jKDCZ-55" style="edgeStyle=orthogonalEdgeStyle;rounded=0;orthogonalLoop=1;jettySize=auto;html=1;entryX=0;entryY=0.5;entryDx=0;entryDy=0;endArrow=baseDash;endFill=0;" parent="1" source="W9Ks_EkjWokIj7THZj_N-147" target="W9Ks_EkjWokIj7THZj_N-10" edge="1">
          <mxGeometry relative="1" as="geometry" />
        </mxCell>
        <mxCell id="TMby_tyriAQ5ey5jKDCZ-56" value="0:N" style="edgeLabel;html=1;align=center;verticalAlign=middle;resizable=0;points=[];" parent="TMby_tyriAQ5ey5jKDCZ-55" vertex="1" connectable="0">
          <mxGeometry x="-0.7682" y="1" relative="1" as="geometry">
            <mxPoint as="offset" />
          </mxGeometry>
        </mxCell>
        <mxCell id="W9Ks_EkjWokIj7THZj_N-147" value="CONTIENE" style="rhombus;whiteSpace=wrap;html=1;" parent="1" vertex="1">
          <mxGeometry x="130" y="1340" width="80" height="80" as="geometry" />
        </mxCell>
        <mxCell id="W9Ks_EkjWokIj7THZj_N-140" value="&lt;u&gt;CÓDIGO&lt;/u&gt;" style="ellipse;whiteSpace=wrap;html=1;" parent="1" vertex="1">
          <mxGeometry x="475" y="240" width="90" height="60" as="geometry" />
        </mxCell>
        <mxCell id="W9Ks_EkjWokIj7THZj_N-164" style="edgeStyle=orthogonalEdgeStyle;rounded=0;orthogonalLoop=1;jettySize=auto;html=1;entryX=0.25;entryY=0;entryDx=0;entryDy=0;endArrow=baseDash;endFill=0;" parent="1" source="W9Ks_EkjWokIj7THZj_N-158" target="W9Ks_EkjWokIj7THZj_N-11" edge="1">
          <mxGeometry relative="1" as="geometry" />
        </mxCell>
        <mxCell id="W9Ks_EkjWokIj7THZj_N-158" value="NºCASILLA" style="ellipse;whiteSpace=wrap;html=1;dashed=1;" parent="1" vertex="1">
          <mxGeometry x="310" y="-80" width="90" height="60" as="geometry" />
        </mxCell>
        <mxCell id="W9Ks_EkjWokIj7THZj_N-160" value="COMENTARIOS" style="ellipse;whiteSpace=wrap;html=1;" parent="1" vertex="1">
          <mxGeometry x="200" y="-10" width="100" height="60" as="geometry" />
        </mxCell>
        <mxCell id="W9Ks_EkjWokIj7THZj_N-167" style="edgeStyle=orthogonalEdgeStyle;rounded=0;orthogonalLoop=1;jettySize=auto;html=1;endArrow=baseDash;endFill=0;" parent="1" source="W9Ks_EkjWokIj7THZj_N-161" target="W9Ks_EkjWokIj7THZj_N-11" edge="1">
          <mxGeometry relative="1" as="geometry" />
        </mxCell>
        <mxCell id="W9Ks_EkjWokIj7THZj_N-161" value="NºORDEN" style="ellipse;whiteSpace=wrap;html=1;" parent="1" vertex="1">
          <mxGeometry x="510" width="90" height="60" as="geometry" />
        </mxCell>
        <mxCell id="W9Ks_EkjWokIj7THZj_N-168" style="edgeStyle=orthogonalEdgeStyle;rounded=0;orthogonalLoop=1;jettySize=auto;html=1;endArrow=baseDash;endFill=0;entryX=0;entryY=0.317;entryDx=0;entryDy=0;entryPerimeter=0;" parent="1" source="W9Ks_EkjWokIj7THZj_N-160" target="W9Ks_EkjWokIj7THZj_N-11" edge="1">
          <mxGeometry relative="1" as="geometry">
            <mxPoint x="320" y="50" as="targetPoint" />
            <Array as="points">
              <mxPoint x="320" y="20" />
              <mxPoint x="320" y="39" />
            </Array>
          </mxGeometry>
        </mxCell>
        <mxCell id="W9Ks_EkjWokIj7THZj_N-171" value="REALIZAN" style="rhombus;whiteSpace=wrap;html=1;" parent="1" vertex="1">
          <mxGeometry x="330" y="140" width="80" height="80" as="geometry" />
        </mxCell>
        <mxCell id="W9Ks_EkjWokIj7THZj_N-172" style="edgeStyle=orthogonalEdgeStyle;rounded=0;orthogonalLoop=1;jettySize=auto;html=1;entryX=0.458;entryY=1;entryDx=0;entryDy=0;entryPerimeter=0;endArrow=baseDash;endFill=0;" parent="1" source="W9Ks_EkjWokIj7THZj_N-171" target="W9Ks_EkjWokIj7THZj_N-11" edge="1">
          <mxGeometry relative="1" as="geometry" />
        </mxCell>
        <mxCell id="TMby_tyriAQ5ey5jKDCZ-38" value="0:N" style="edgeLabel;html=1;align=center;verticalAlign=middle;resizable=0;points=[];" parent="W9Ks_EkjWokIj7THZj_N-172" vertex="1" connectable="0">
          <mxGeometry x="-0.7813" y="1" relative="1" as="geometry">
            <mxPoint as="offset" />
          </mxGeometry>
        </mxCell>
        <mxCell id="W9Ks_EkjWokIj7THZj_N-175" value="COLOR&lt;div&gt;JUGADOR&lt;/div&gt;" style="ellipse;whiteSpace=wrap;html=1;" parent="1" vertex="1">
          <mxGeometry x="362.5" y="580" width="80" height="60" as="geometry" />
        </mxCell>
        <mxCell id="W9Ks_EkjWokIj7THZj_N-176" value="RANKING&lt;div&gt;JUGADOR&lt;/div&gt;" style="ellipse;whiteSpace=wrap;html=1;" parent="1" vertex="1">
          <mxGeometry x="455" y="550" width="80" height="60" as="geometry" />
        </mxCell>
        <mxCell id="TMby_tyriAQ5ey5jKDCZ-2" style="edgeStyle=orthogonalEdgeStyle;rounded=0;orthogonalLoop=1;jettySize=auto;html=1;entryX=0.002;entryY=0.671;entryDx=0;entryDy=0;entryPerimeter=0;endArrow=baseDash;endFill=0;" parent="1" source="W9Ks_EkjWokIj7THZj_N-27" target="W9Ks_EkjWokIj7THZj_N-3" edge="1">
          <mxGeometry relative="1" as="geometry">
            <Array as="points">
              <mxPoint x="110" y="480" />
            </Array>
          </mxGeometry>
        </mxCell>
        <mxCell id="TMby_tyriAQ5ey5jKDCZ-4" value="0:1" style="edgeLabel;html=1;align=center;verticalAlign=middle;resizable=0;points=[];" parent="TMby_tyriAQ5ey5jKDCZ-2" vertex="1" connectable="0">
          <mxGeometry x="-0.8145" y="-1" relative="1" as="geometry">
            <mxPoint as="offset" />
          </mxGeometry>
        </mxCell>
        <mxCell id="TMby_tyriAQ5ey5jKDCZ-15" style="edgeStyle=orthogonalEdgeStyle;rounded=0;orthogonalLoop=1;jettySize=auto;html=1;endArrow=baseDash;endFill=0;entryX=1;entryY=0.63;entryDx=0;entryDy=0;entryPerimeter=0;" parent="1" source="W9Ks_EkjWokIj7THZj_N-147" target="W9Ks_EkjWokIj7THZj_N-7" edge="1">
          <mxGeometry relative="1" as="geometry">
            <mxPoint x="120" y="1038" as="targetPoint" />
            <Array as="points">
              <mxPoint x="135" y="1038" />
            </Array>
          </mxGeometry>
        </mxCell>
        <mxCell id="TMby_tyriAQ5ey5jKDCZ-16" value="1:1" style="edgeLabel;html=1;align=center;verticalAlign=middle;resizable=0;points=[];" parent="TMby_tyriAQ5ey5jKDCZ-15" vertex="1" connectable="0">
          <mxGeometry x="-0.6583" y="1" relative="1" as="geometry">
            <mxPoint as="offset" />
          </mxGeometry>
        </mxCell>
        <mxCell id="TMby_tyriAQ5ey5jKDCZ-24" style="edgeStyle=orthogonalEdgeStyle;rounded=0;orthogonalLoop=1;jettySize=auto;html=1;endArrow=baseDash;endFill=0;" parent="1" source="W9Ks_EkjWokIj7THZj_N-31" edge="1">
          <mxGeometry relative="1" as="geometry">
            <mxPoint x="466" y="770" as="targetPoint" />
          </mxGeometry>
        </mxCell>
        <mxCell id="TMby_tyriAQ5ey5jKDCZ-26" value="0:N" style="edgeLabel;html=1;align=center;verticalAlign=middle;resizable=0;points=[];" parent="TMby_tyriAQ5ey5jKDCZ-24" vertex="1" connectable="0">
          <mxGeometry x="-0.731" y="-1" relative="1" as="geometry">
            <mxPoint x="-1" y="29" as="offset" />
          </mxGeometry>
        </mxCell>
        <mxCell id="TMby_tyriAQ5ey5jKDCZ-36" style="edgeStyle=orthogonalEdgeStyle;rounded=0;orthogonalLoop=1;jettySize=auto;html=1;endArrow=baseDash;endFill=0;entryX=0.293;entryY=0;entryDx=0;entryDy=0;entryPerimeter=0;" parent="1" source="W9Ks_EkjWokIj7THZj_N-171" target="W9Ks_EkjWokIj7THZj_N-4" edge="1">
          <mxGeometry relative="1" as="geometry">
            <mxPoint x="390" y="349" as="targetPoint" />
          </mxGeometry>
        </mxCell>
        <mxCell id="TMby_tyriAQ5ey5jKDCZ-37" value="0:1" style="edgeLabel;html=1;align=center;verticalAlign=middle;resizable=0;points=[];" parent="TMby_tyriAQ5ey5jKDCZ-36" vertex="1" connectable="0">
          <mxGeometry x="-0.8599" y="-1" relative="1" as="geometry">
            <mxPoint as="offset" />
          </mxGeometry>
        </mxCell>
        <mxCell id="TMby_tyriAQ5ey5jKDCZ-39" style="edgeStyle=orthogonalEdgeStyle;rounded=0;orthogonalLoop=1;jettySize=auto;html=1;entryX=1;entryY=0.536;entryDx=0;entryDy=0;entryPerimeter=0;endArrow=baseDash;endFill=0;" parent="1" source="W9Ks_EkjWokIj7THZj_N-64" target="W9Ks_EkjWokIj7THZj_N-4" edge="1">
          <mxGeometry relative="1" as="geometry" />
        </mxCell>
        <mxCell id="TMby_tyriAQ5ey5jKDCZ-40" value="1:N" style="edgeLabel;html=1;align=center;verticalAlign=middle;resizable=0;points=[];" parent="TMby_tyriAQ5ey5jKDCZ-39" vertex="1" connectable="0">
          <mxGeometry x="-0.0351" y="3" relative="1" as="geometry">
            <mxPoint as="offset" />
          </mxGeometry>
        </mxCell>
        <mxCell id="TMby_tyriAQ5ey5jKDCZ-44" style="edgeStyle=orthogonalEdgeStyle;rounded=0;orthogonalLoop=1;jettySize=auto;html=1;entryX=0.999;entryY=0.665;entryDx=0;entryDy=0;entryPerimeter=0;exitX=0;exitY=0.5;exitDx=0;exitDy=0;endArrow=baseDash;endFill=0;" parent="1" source="W9Ks_EkjWokIj7THZj_N-57" target="W9Ks_EkjWokIj7THZj_N-3" edge="1">
          <mxGeometry relative="1" as="geometry">
            <Array as="points">
              <mxPoint x="360" y="479" />
              <mxPoint x="340" y="479" />
            </Array>
          </mxGeometry>
        </mxCell>
        <mxCell id="TMby_tyriAQ5ey5jKDCZ-45" value="0:1" style="edgeLabel;html=1;align=center;verticalAlign=middle;resizable=0;points=[];" parent="TMby_tyriAQ5ey5jKDCZ-44" vertex="1" connectable="0">
          <mxGeometry x="0.5101" y="1" relative="1" as="geometry">
            <mxPoint x="8" y="7" as="offset" />
          </mxGeometry>
        </mxCell>
        <mxCell id="TMby_tyriAQ5ey5jKDCZ-47" style="edgeStyle=orthogonalEdgeStyle;rounded=0;orthogonalLoop=1;jettySize=auto;html=1;endArrow=baseDash;endFill=0;" parent="1" source="W9Ks_EkjWokIj7THZj_N-57" edge="1">
          <mxGeometry relative="1" as="geometry">
            <mxPoint x="400" y="580" as="targetPoint" />
          </mxGeometry>
        </mxCell>
        <mxCell id="TMby_tyriAQ5ey5jKDCZ-54" style="edgeStyle=orthogonalEdgeStyle;rounded=0;orthogonalLoop=1;jettySize=auto;html=1;entryX=0.5;entryY=0;entryDx=0;entryDy=0;endArrow=baseDash;endFill=0;" parent="1" source="TMby_tyriAQ5ey5jKDCZ-51" target="W9Ks_EkjWokIj7THZj_N-158" edge="1">
          <mxGeometry relative="1" as="geometry" />
        </mxCell>
        <mxCell id="TMby_tyriAQ5ey5jKDCZ-51" value="NºCASILLA&lt;div&gt;FICHA&lt;/div&gt;" style="ellipse;whiteSpace=wrap;html=1;" parent="1" vertex="1">
          <mxGeometry x="368" y="-180" width="90" height="60" as="geometry" />
        </mxCell>
        <mxCell id="TMby_tyriAQ5ey5jKDCZ-53" style="edgeStyle=orthogonalEdgeStyle;rounded=0;orthogonalLoop=1;jettySize=auto;html=1;endArrow=baseDash;endFill=0;" parent="1" source="TMby_tyriAQ5ey5jKDCZ-52" target="W9Ks_EkjWokIj7THZj_N-158" edge="1">
          <mxGeometry relative="1" as="geometry" />
        </mxCell>
        <mxCell id="TMby_tyriAQ5ey5jKDCZ-52" value="NºCASILLA&lt;div&gt;MOVER&lt;/div&gt;" style="ellipse;whiteSpace=wrap;html=1;" parent="1" vertex="1">
          <mxGeometry x="270" y="-180" width="90" height="60" as="geometry" />
        </mxCell>
        <mxCell id="8Yfpx1BOfUTbNeeiR8w_-41" style="edgeStyle=orthogonalEdgeStyle;rounded=0;orthogonalLoop=1;jettySize=auto;html=1;entryX=1;entryY=0.5;entryDx=0;entryDy=0;endArrow=blockThin;endFill=0;" edge="1" parent="1" source="8Yfpx1BOfUTbNeeiR8w_-1" target="8Yfpx1BOfUTbNeeiR8w_-3">
          <mxGeometry relative="1" as="geometry" />
        </mxCell>
        <mxCell id="8Yfpx1BOfUTbNeeiR8w_-1" value="JUGADOR" style="rounded=0;whiteSpace=wrap;html=1;" vertex="1" parent="1">
          <mxGeometry x="1920" y="90" width="120" height="60" as="geometry" />
        </mxCell>
        <mxCell id="8Yfpx1BOfUTbNeeiR8w_-42" style="edgeStyle=orthogonalEdgeStyle;rounded=0;orthogonalLoop=1;jettySize=auto;html=1;entryX=1;entryY=0.5;entryDx=0;entryDy=0;endArrow=blockThin;endFill=0;" edge="1" parent="1" source="8Yfpx1BOfUTbNeeiR8w_-2" target="8Yfpx1BOfUTbNeeiR8w_-3">
          <mxGeometry relative="1" as="geometry" />
        </mxCell>
        <mxCell id="8Yfpx1BOfUTbNeeiR8w_-2" value="ARBITRO" style="rounded=0;whiteSpace=wrap;html=1;" vertex="1" parent="1">
          <mxGeometry x="1920" y="300" width="120" height="60" as="geometry" />
        </mxCell>
        <mxCell id="8Yfpx1BOfUTbNeeiR8w_-3" value="PARTICIPANTES" style="rounded=0;whiteSpace=wrap;html=1;" vertex="1" parent="1">
          <mxGeometry x="1720" y="190" width="120" height="60" as="geometry" />
        </mxCell>
        <mxCell id="8Yfpx1BOfUTbNeeiR8w_-4" value="PARTIDA" style="rounded=0;whiteSpace=wrap;html=1;" vertex="1" parent="1">
          <mxGeometry x="2180" y="190" width="120" height="60" as="geometry" />
        </mxCell>
        <mxCell id="8Yfpx1BOfUTbNeeiR8w_-5" value="MOVIMENTOS" style="rounded=0;whiteSpace=wrap;html=1;" vertex="1" parent="1">
          <mxGeometry x="2540" y="190" width="120" height="60" as="geometry" />
        </mxCell>
        <mxCell id="8Yfpx1BOfUTbNeeiR8w_-6" value="HOTEL" style="rounded=0;whiteSpace=wrap;html=1;" vertex="1" parent="1">
          <mxGeometry x="1570" y="320" width="120" height="60" as="geometry" />
        </mxCell>
        <mxCell id="8Yfpx1BOfUTbNeeiR8w_-10" value="HOSPEDAN" style="rhombus;whiteSpace=wrap;html=1;" vertex="1" parent="1">
          <mxGeometry x="1590" y="180" width="80" height="80" as="geometry" />
        </mxCell>
        <mxCell id="8Yfpx1BOfUTbNeeiR8w_-11" value="" style="endArrow=none;html=1;rounded=0;" edge="1" parent="1" source="8Yfpx1BOfUTbNeeiR8w_-10" target="8Yfpx1BOfUTbNeeiR8w_-3">
          <mxGeometry width="50" height="50" relative="1" as="geometry">
            <mxPoint x="1800" y="300" as="sourcePoint" />
            <mxPoint x="1850" y="250" as="targetPoint" />
          </mxGeometry>
        </mxCell>
        <mxCell id="8Yfpx1BOfUTbNeeiR8w_-16" value="0:N" style="edgeLabel;html=1;align=center;verticalAlign=middle;resizable=0;points=[];" vertex="1" connectable="0" parent="8Yfpx1BOfUTbNeeiR8w_-11">
          <mxGeometry x="-0.8124" relative="1" as="geometry">
            <mxPoint x="15" as="offset" />
          </mxGeometry>
        </mxCell>
        <mxCell id="8Yfpx1BOfUTbNeeiR8w_-12" value="" style="endArrow=none;html=1;rounded=0;" edge="1" parent="1" source="8Yfpx1BOfUTbNeeiR8w_-6" target="8Yfpx1BOfUTbNeeiR8w_-10">
          <mxGeometry width="50" height="50" relative="1" as="geometry">
            <mxPoint x="1800" y="300" as="sourcePoint" />
            <mxPoint x="1850" y="250" as="targetPoint" />
          </mxGeometry>
        </mxCell>
        <mxCell id="8Yfpx1BOfUTbNeeiR8w_-17" value="1:N" style="edgeLabel;html=1;align=center;verticalAlign=middle;resizable=0;points=[];" vertex="1" connectable="0" parent="8Yfpx1BOfUTbNeeiR8w_-12">
          <mxGeometry x="0.7542" relative="1" as="geometry">
            <mxPoint as="offset" />
          </mxGeometry>
        </mxCell>
        <mxCell id="8Yfpx1BOfUTbNeeiR8w_-19" value="CHECK-OUT" style="ellipse;whiteSpace=wrap;html=1;" vertex="1" parent="1">
          <mxGeometry x="1480" y="245" width="75" height="50" as="geometry" />
        </mxCell>
        <mxCell id="8Yfpx1BOfUTbNeeiR8w_-21" value="HABITACION" style="ellipse;whiteSpace=wrap;html=1;" vertex="1" parent="1">
          <mxGeometry x="1450" y="190" width="75" height="50" as="geometry" />
        </mxCell>
        <mxCell id="8Yfpx1BOfUTbNeeiR8w_-26" style="edgeStyle=orthogonalEdgeStyle;rounded=0;orthogonalLoop=1;jettySize=auto;html=1;entryX=0.5;entryY=0;entryDx=0;entryDy=0;" edge="1" parent="1" source="8Yfpx1BOfUTbNeeiR8w_-22" target="8Yfpx1BOfUTbNeeiR8w_-10">
          <mxGeometry relative="1" as="geometry">
            <Array as="points">
              <mxPoint x="1630" y="160" />
            </Array>
          </mxGeometry>
        </mxCell>
        <mxCell id="8Yfpx1BOfUTbNeeiR8w_-22" value="CHEK-IN" style="ellipse;whiteSpace=wrap;html=1;" vertex="1" parent="1">
          <mxGeometry x="1495" y="140" width="75" height="50" as="geometry" />
        </mxCell>
        <mxCell id="8Yfpx1BOfUTbNeeiR8w_-25" style="edgeStyle=orthogonalEdgeStyle;rounded=0;orthogonalLoop=1;jettySize=auto;html=1;entryX=0.055;entryY=0.507;entryDx=0;entryDy=0;entryPerimeter=0;" edge="1" parent="1" source="8Yfpx1BOfUTbNeeiR8w_-21" target="8Yfpx1BOfUTbNeeiR8w_-10">
          <mxGeometry relative="1" as="geometry">
            <Array as="points">
              <mxPoint x="1558" y="220" />
            </Array>
          </mxGeometry>
        </mxCell>
        <mxCell id="8Yfpx1BOfUTbNeeiR8w_-27" style="edgeStyle=orthogonalEdgeStyle;rounded=0;orthogonalLoop=1;jettySize=auto;html=1;entryX=0.327;entryY=0.807;entryDx=0;entryDy=0;entryPerimeter=0;" edge="1" parent="1" source="8Yfpx1BOfUTbNeeiR8w_-19" target="8Yfpx1BOfUTbNeeiR8w_-10">
          <mxGeometry relative="1" as="geometry" />
        </mxCell>
        <mxCell id="8Yfpx1BOfUTbNeeiR8w_-28" value="SALA" style="rounded=0;whiteSpace=wrap;html=1;" vertex="1" parent="1">
          <mxGeometry x="1570" y="550" width="120" height="60" as="geometry" />
        </mxCell>
        <mxCell id="8Yfpx1BOfUTbNeeiR8w_-29" value="HOSPEDAN" style="rhombus;whiteSpace=wrap;html=1;" vertex="1" parent="1">
          <mxGeometry x="1590" y="420" width="80" height="80" as="geometry" />
        </mxCell>
        <mxCell id="8Yfpx1BOfUTbNeeiR8w_-30" value="" style="endArrow=none;html=1;rounded=0;" edge="1" parent="1" source="8Yfpx1BOfUTbNeeiR8w_-29" target="8Yfpx1BOfUTbNeeiR8w_-6">
          <mxGeometry width="50" height="50" relative="1" as="geometry">
            <mxPoint x="1660" y="430" as="sourcePoint" />
            <mxPoint x="1710" y="380" as="targetPoint" />
          </mxGeometry>
        </mxCell>
        <mxCell id="8Yfpx1BOfUTbNeeiR8w_-33" value="" style="endArrow=none;html=1;rounded=0;" edge="1" parent="1" source="8Yfpx1BOfUTbNeeiR8w_-28" target="8Yfpx1BOfUTbNeeiR8w_-29">
          <mxGeometry width="50" height="50" relative="1" as="geometry">
            <mxPoint x="1510" y="420" as="sourcePoint" />
            <mxPoint x="1560" y="370" as="targetPoint" />
          </mxGeometry>
        </mxCell>
        <mxCell id="8Yfpx1BOfUTbNeeiR8w_-34" value="CAPACIDAD" style="ellipse;whiteSpace=wrap;html=1;" vertex="1" parent="1">
          <mxGeometry x="1410" y="480" width="75" height="50" as="geometry" />
        </mxCell>
        <mxCell id="8Yfpx1BOfUTbNeeiR8w_-35" value="DESCRIPCION" style="ellipse;whiteSpace=wrap;html=1;" vertex="1" parent="1">
          <mxGeometry x="1430" y="615" width="85" height="56.67" as="geometry" />
        </mxCell>
        <mxCell id="8Yfpx1BOfUTbNeeiR8w_-36" value="NUMERO" style="ellipse;whiteSpace=wrap;html=1;" vertex="1" parent="1">
          <mxGeometry x="1405" y="540" width="75" height="50" as="geometry" />
        </mxCell>
        <mxCell id="8Yfpx1BOfUTbNeeiR8w_-37" value="" style="endArrow=none;html=1;rounded=0;" edge="1" parent="1" source="8Yfpx1BOfUTbNeeiR8w_-28" target="8Yfpx1BOfUTbNeeiR8w_-35">
          <mxGeometry width="50" height="50" relative="1" as="geometry">
            <mxPoint x="1510" y="420" as="sourcePoint" />
            <mxPoint x="1560" y="370" as="targetPoint" />
          </mxGeometry>
        </mxCell>
        <mxCell id="8Yfpx1BOfUTbNeeiR8w_-38" value="" style="endArrow=none;html=1;rounded=0;" edge="1" parent="1" source="8Yfpx1BOfUTbNeeiR8w_-28" target="8Yfpx1BOfUTbNeeiR8w_-36">
          <mxGeometry width="50" height="50" relative="1" as="geometry">
            <mxPoint x="1520" y="430" as="sourcePoint" />
            <mxPoint x="1570" y="380" as="targetPoint" />
          </mxGeometry>
        </mxCell>
        <mxCell id="8Yfpx1BOfUTbNeeiR8w_-39" value="" style="endArrow=none;html=1;rounded=0;" edge="1" parent="1" source="8Yfpx1BOfUTbNeeiR8w_-28" target="8Yfpx1BOfUTbNeeiR8w_-34">
          <mxGeometry width="50" height="50" relative="1" as="geometry">
            <mxPoint x="1530" y="440" as="sourcePoint" />
            <mxPoint x="1580" y="390" as="targetPoint" />
          </mxGeometry>
        </mxCell>
        <mxCell id="8Yfpx1BOfUTbNeeiR8w_-43" value="ARBITRA" style="rhombus;whiteSpace=wrap;html=1;" vertex="1" parent="1">
          <mxGeometry x="2100" y="290" width="80" height="80" as="geometry" />
        </mxCell>
        <mxCell id="8Yfpx1BOfUTbNeeiR8w_-44" value="JUEGA" style="rhombus;whiteSpace=wrap;html=1;" vertex="1" parent="1">
          <mxGeometry x="2100" y="80" width="80" height="80" as="geometry" />
        </mxCell>
        <mxCell id="8Yfpx1BOfUTbNeeiR8w_-45" value="" style="endArrow=none;html=1;rounded=0;" edge="1" parent="1" source="8Yfpx1BOfUTbNeeiR8w_-43" target="8Yfpx1BOfUTbNeeiR8w_-4">
          <mxGeometry width="50" height="50" relative="1" as="geometry">
            <mxPoint x="2030" y="130" as="sourcePoint" />
            <mxPoint x="2080" y="80" as="targetPoint" />
            <Array as="points">
              <mxPoint x="2240" y="330" />
            </Array>
          </mxGeometry>
        </mxCell>
        <mxCell id="8Yfpx1BOfUTbNeeiR8w_-51" value="1:N" style="edgeLabel;html=1;align=center;verticalAlign=middle;resizable=0;points=[];" vertex="1" connectable="0" parent="8Yfpx1BOfUTbNeeiR8w_-45">
          <mxGeometry x="-0.6952" y="1" relative="1" as="geometry">
            <mxPoint as="offset" />
          </mxGeometry>
        </mxCell>
        <mxCell id="8Yfpx1BOfUTbNeeiR8w_-46" value="" style="endArrow=none;html=1;rounded=0;" edge="1" parent="1" source="8Yfpx1BOfUTbNeeiR8w_-2" target="8Yfpx1BOfUTbNeeiR8w_-43">
          <mxGeometry width="50" height="50" relative="1" as="geometry">
            <mxPoint x="2030" y="130" as="sourcePoint" />
            <mxPoint x="2080" y="80" as="targetPoint" />
          </mxGeometry>
        </mxCell>
        <mxCell id="8Yfpx1BOfUTbNeeiR8w_-53" value="1:1" style="edgeLabel;html=1;align=center;verticalAlign=middle;resizable=0;points=[];" vertex="1" connectable="0" parent="8Yfpx1BOfUTbNeeiR8w_-46">
          <mxGeometry x="0.2333" y="1" relative="1" as="geometry">
            <mxPoint as="offset" />
          </mxGeometry>
        </mxCell>
        <mxCell id="8Yfpx1BOfUTbNeeiR8w_-47" value="" style="endArrow=none;html=1;rounded=0;" edge="1" parent="1" source="8Yfpx1BOfUTbNeeiR8w_-44" target="8Yfpx1BOfUTbNeeiR8w_-4">
          <mxGeometry width="50" height="50" relative="1" as="geometry">
            <mxPoint x="2030" y="130" as="sourcePoint" />
            <mxPoint x="2080" y="80" as="targetPoint" />
            <Array as="points">
              <mxPoint x="2240" y="120" />
            </Array>
          </mxGeometry>
        </mxCell>
        <mxCell id="8Yfpx1BOfUTbNeeiR8w_-49" value="1:N" style="edgeLabel;html=1;align=center;verticalAlign=middle;resizable=0;points=[];" vertex="1" connectable="0" parent="8Yfpx1BOfUTbNeeiR8w_-47">
          <mxGeometry x="-0.7385" y="4" relative="1" as="geometry">
            <mxPoint x="1" y="4" as="offset" />
          </mxGeometry>
        </mxCell>
        <mxCell id="8Yfpx1BOfUTbNeeiR8w_-48" value="" style="endArrow=none;html=1;rounded=0;" edge="1" parent="1" source="8Yfpx1BOfUTbNeeiR8w_-1" target="8Yfpx1BOfUTbNeeiR8w_-44">
          <mxGeometry width="50" height="50" relative="1" as="geometry">
            <mxPoint x="2030" y="130" as="sourcePoint" />
            <mxPoint x="2080" y="80" as="targetPoint" />
          </mxGeometry>
        </mxCell>
        <mxCell id="8Yfpx1BOfUTbNeeiR8w_-50" value="1:1" style="edgeLabel;html=1;align=center;verticalAlign=middle;resizable=0;points=[];" vertex="1" connectable="0" parent="8Yfpx1BOfUTbNeeiR8w_-48">
          <mxGeometry x="0.5" relative="1" as="geometry">
            <mxPoint as="offset" />
          </mxGeometry>
        </mxCell>
        <mxCell id="8Yfpx1BOfUTbNeeiR8w_-54" value="DESARROLLA" style="rhombus;whiteSpace=wrap;html=1;" vertex="1" parent="1">
          <mxGeometry x="1930" y="532" width="100" height="100" as="geometry" />
        </mxCell>
        <mxCell id="8Yfpx1BOfUTbNeeiR8w_-56" value="" style="endArrow=none;html=1;rounded=0;" edge="1" parent="1" source="8Yfpx1BOfUTbNeeiR8w_-28" target="8Yfpx1BOfUTbNeeiR8w_-54">
          <mxGeometry width="50" height="50" relative="1" as="geometry">
            <mxPoint x="1900" y="330" as="sourcePoint" />
            <mxPoint x="1950" y="280" as="targetPoint" />
          </mxGeometry>
        </mxCell>
        <mxCell id="8Yfpx1BOfUTbNeeiR8w_-60" value="1:1" style="edgeLabel;html=1;align=center;verticalAlign=middle;resizable=0;points=[];" vertex="1" connectable="0" parent="8Yfpx1BOfUTbNeeiR8w_-56">
          <mxGeometry x="0.7096" y="1" relative="1" as="geometry">
            <mxPoint as="offset" />
          </mxGeometry>
        </mxCell>
        <mxCell id="8Yfpx1BOfUTbNeeiR8w_-57" value="" style="endArrow=none;html=1;rounded=0;exitX=1;exitY=0.5;exitDx=0;exitDy=0;entryX=1;entryY=0.5;entryDx=0;entryDy=0;" edge="1" parent="1" source="8Yfpx1BOfUTbNeeiR8w_-54" target="8Yfpx1BOfUTbNeeiR8w_-4">
          <mxGeometry width="50" height="50" relative="1" as="geometry">
            <mxPoint x="1900" y="330" as="sourcePoint" />
            <mxPoint x="2380" y="210" as="targetPoint" />
            <Array as="points">
              <mxPoint x="2380" y="582" />
              <mxPoint x="2380" y="400" />
              <mxPoint x="2380" y="220" />
            </Array>
          </mxGeometry>
        </mxCell>
        <mxCell id="8Yfpx1BOfUTbNeeiR8w_-59" value="1:N" style="edgeLabel;html=1;align=center;verticalAlign=middle;resizable=0;points=[];" vertex="1" connectable="0" parent="8Yfpx1BOfUTbNeeiR8w_-57">
          <mxGeometry x="-0.9394" y="-2" relative="1" as="geometry">
            <mxPoint as="offset" />
          </mxGeometry>
        </mxCell>
        <mxCell id="8Yfpx1BOfUTbNeeiR8w_-64" value="REALIZAN" style="rhombus;whiteSpace=wrap;html=1;" vertex="1" parent="1">
          <mxGeometry x="2420" y="180" width="80" height="80" as="geometry" />
        </mxCell>
        <mxCell id="8Yfpx1BOfUTbNeeiR8w_-65" value="" style="endArrow=none;html=1;rounded=0;" edge="1" parent="1" source="8Yfpx1BOfUTbNeeiR8w_-4" target="8Yfpx1BOfUTbNeeiR8w_-64">
          <mxGeometry width="50" height="50" relative="1" as="geometry">
            <mxPoint x="2290" y="190" as="sourcePoint" />
            <mxPoint x="2340" y="140" as="targetPoint" />
          </mxGeometry>
        </mxCell>
        <mxCell id="8Yfpx1BOfUTbNeeiR8w_-89" value="1:1" style="edgeLabel;html=1;align=center;verticalAlign=middle;resizable=0;points=[];" vertex="1" connectable="0" parent="8Yfpx1BOfUTbNeeiR8w_-65">
          <mxGeometry x="0.7868" y="-2" relative="1" as="geometry">
            <mxPoint as="offset" />
          </mxGeometry>
        </mxCell>
        <mxCell id="8Yfpx1BOfUTbNeeiR8w_-66" value="" style="endArrow=none;html=1;rounded=0;" edge="1" parent="1" source="8Yfpx1BOfUTbNeeiR8w_-64" target="8Yfpx1BOfUTbNeeiR8w_-5">
          <mxGeometry width="50" height="50" relative="1" as="geometry">
            <mxPoint x="2290" y="190" as="sourcePoint" />
            <mxPoint x="2340" y="140" as="targetPoint" />
          </mxGeometry>
        </mxCell>
        <mxCell id="8Yfpx1BOfUTbNeeiR8w_-88" value="1:N" style="edgeLabel;html=1;align=center;verticalAlign=middle;resizable=0;points=[];" vertex="1" connectable="0" parent="8Yfpx1BOfUTbNeeiR8w_-66">
          <mxGeometry x="-0.2" relative="1" as="geometry">
            <mxPoint as="offset" />
          </mxGeometry>
        </mxCell>
        <mxCell id="8Yfpx1BOfUTbNeeiR8w_-69" value="CASILLA" style="ellipse;whiteSpace=wrap;html=1;dashed=1;" vertex="1" parent="1">
          <mxGeometry x="2650" y="120" width="75" height="50" as="geometry" />
        </mxCell>
        <mxCell id="8Yfpx1BOfUTbNeeiR8w_-70" value="SALIDA" style="ellipse;whiteSpace=wrap;html=1;" vertex="1" parent="1">
          <mxGeometry x="2680" y="30" width="75" height="50" as="geometry" />
        </mxCell>
        <mxCell id="8Yfpx1BOfUTbNeeiR8w_-71" value="CHEK-IN" style="ellipse;whiteSpace=wrap;html=1;" vertex="1" parent="1">
          <mxGeometry x="2740" y="110" width="75" height="50" as="geometry" />
        </mxCell>
        <mxCell id="8Yfpx1BOfUTbNeeiR8w_-72" value="CHEK-IN" style="ellipse;whiteSpace=wrap;html=1;" vertex="1" parent="1">
          <mxGeometry x="2150" y="395" width="75" height="50" as="geometry" />
        </mxCell>
        <mxCell id="8Yfpx1BOfUTbNeeiR8w_-73" value="CHEK-IN" style="ellipse;whiteSpace=wrap;html=1;" vertex="1" parent="1">
          <mxGeometry x="2050" y="392" width="75" height="50" as="geometry" />
        </mxCell>
        <mxCell id="8Yfpx1BOfUTbNeeiR8w_-74" value="" style="endArrow=none;html=1;rounded=0;" edge="1" parent="1" source="8Yfpx1BOfUTbNeeiR8w_-43" target="8Yfpx1BOfUTbNeeiR8w_-72">
          <mxGeometry width="50" height="50" relative="1" as="geometry">
            <mxPoint x="2440" y="240" as="sourcePoint" />
            <mxPoint x="2490" y="190" as="targetPoint" />
          </mxGeometry>
        </mxCell>
        <mxCell id="8Yfpx1BOfUTbNeeiR8w_-75" value="" style="endArrow=none;html=1;rounded=0;" edge="1" parent="1" source="8Yfpx1BOfUTbNeeiR8w_-43" target="8Yfpx1BOfUTbNeeiR8w_-73">
          <mxGeometry width="50" height="50" relative="1" as="geometry">
            <mxPoint x="2440" y="240" as="sourcePoint" />
            <mxPoint x="2490" y="190" as="targetPoint" />
          </mxGeometry>
        </mxCell>
        <mxCell id="8Yfpx1BOfUTbNeeiR8w_-77" value="N.MOVIMIENTO" style="ellipse;whiteSpace=wrap;html=1;" vertex="1" parent="1">
          <mxGeometry x="2700" y="235" width="130" height="50" as="geometry" />
        </mxCell>
        <mxCell id="8Yfpx1BOfUTbNeeiR8w_-80" value="" style="endArrow=none;html=1;rounded=0;" edge="1" parent="1" source="8Yfpx1BOfUTbNeeiR8w_-1" target="8Yfpx1BOfUTbNeeiR8w_-79">
          <mxGeometry width="50" height="50" relative="1" as="geometry">
            <mxPoint x="1980" y="90" as="sourcePoint" />
            <mxPoint x="2600" y="190" as="targetPoint" />
            <Array as="points">
              <mxPoint x="1980" />
            </Array>
          </mxGeometry>
        </mxCell>
        <mxCell id="8Yfpx1BOfUTbNeeiR8w_-85" value="1:1" style="edgeLabel;html=1;align=center;verticalAlign=middle;resizable=0;points=[];" vertex="1" connectable="0" parent="8Yfpx1BOfUTbNeeiR8w_-80">
          <mxGeometry x="0.9012" relative="1" as="geometry">
            <mxPoint as="offset" />
          </mxGeometry>
        </mxCell>
        <mxCell id="8Yfpx1BOfUTbNeeiR8w_-79" value="MUEVE" style="rhombus;whiteSpace=wrap;html=1;" vertex="1" parent="1">
          <mxGeometry x="2260" y="-40" width="80" height="80" as="geometry" />
        </mxCell>
        <mxCell id="8Yfpx1BOfUTbNeeiR8w_-81" value="" style="endArrow=none;html=1;rounded=0;" edge="1" parent="1" source="8Yfpx1BOfUTbNeeiR8w_-79" target="8Yfpx1BOfUTbNeeiR8w_-5">
          <mxGeometry width="50" height="50" relative="1" as="geometry">
            <mxPoint x="2460" y="200" as="sourcePoint" />
            <mxPoint x="2510" y="150" as="targetPoint" />
            <Array as="points">
              <mxPoint x="2600" />
            </Array>
          </mxGeometry>
        </mxCell>
        <mxCell id="8Yfpx1BOfUTbNeeiR8w_-84" value="1:N" style="edgeLabel;html=1;align=center;verticalAlign=middle;resizable=0;points=[];" vertex="1" connectable="0" parent="8Yfpx1BOfUTbNeeiR8w_-81">
          <mxGeometry x="-0.8851" y="-1" relative="1" as="geometry">
            <mxPoint as="offset" />
          </mxGeometry>
        </mxCell>
      </root>
    </mxGraphModel>
  </diagram>
</mxfile>
